<?xml version="1.0" standalone="no"?><!DOCTYPE svg PUBLIC "-//W3C//DTD SVG 1.1//EN" "http://www.w3.org/Graphics/SVG/1.1/DTD/svg11.dtd"><svg t="1696841280297" class="icon" viewBox="0 0 1024 1024" version="1.1" xmlns="http://www.w3.org/2000/svg" p-id="23520" xmlns:xlink="http://www.w3.org/1999/xlink" width="200" height="200"><path d="M709.184 423.424a240 240 0 0 0-398.24-4.928A48 48 0 0 1 231.904 364 334.848 334.848 0 0 1 340.48 264c142.464-82.24 320.128-48.32 423.264 72.416v-56.992a48 48 0 0 1 96 0v192c0 13.248-5.376 25.28-14.08 33.92-8.64 8.704-20.672 14.08-33.92 14.08h-192a48 48 0 0 1 0-96h89.472z" fill="#0080EF" opacity=".4" p-id="23521"></path><path d="M313.6 672a240 240 0 0 0 395.2 0.32 48 48 0 1 1 79.008 54.496 334.848 334.848 0 0 1-108.544 100C536.8 909.056 359.136 875.136 256 754.432V816a48 48 0 1 1-96 0V624c0-13.248 5.376-25.28 14.08-33.92C182.72 581.376 194.752 576 208 576h192a48 48 0 1 1 0 96h-86.4z" fill="#0080EF" p-id="23522"></path></svg>