<?xml version="1.0" standalone="no"?><!DOCTYPE svg PUBLIC "-//W3C//DTD SVG 1.1//EN" "http://www.w3.org/Graphics/SVG/1.1/DTD/svg11.dtd"><svg t="1696841805942" class="icon" viewBox="0 0 1024 1024" version="1.1" xmlns="http://www.w3.org/2000/svg" p-id="26897" xmlns:xlink="http://www.w3.org/1999/xlink" width="200" height="200"><path d="M934.4 358.4l-248-144a20.8 20.8 0 0 0-19.2 0L512 304l92.8 54.4a12.8 12.8 0 0 1 6.4 6.4 22.4 22.4 0 0 1 3.2 9.6v161.6a16 16 0 0 1-9.6 16l-32 19.2a20.8 20.8 0 0 1-19.2 0L512 547.2v-59.2L470.4 464l-9.6-3.2-9.6 3.2-32 19.2a17.6 17.6 0 0 0-9.6 16v161.6a17.6 17.6 0 0 0 9.6 16l9.6 6.4 83.2 48 155.2 89.6a20.8 20.8 0 0 0 19.2 0l248-144a17.6 17.6 0 0 0 9.6-16V374.4a17.6 17.6 0 0 0-9.6-16z" fill="#5191FF" p-id="26898"></path><path d="M428.8 683.2l-9.6-6.4a17.6 17.6 0 0 1-9.6-16V499.2a17.6 17.6 0 0 1 9.6-16l32-19.2 9.6-3.2 9.6 3.2 41.6 24v59.2l41.6 24a20.8 20.8 0 0 0 19.2 0l32-19.2a17.6 17.6 0 0 0 9.6-16V374.4a22.4 22.4 0 0 0-3.2-9.6 12.8 12.8 0 0 0-6.4-6.4L512 304l-155.2-89.6a20.8 20.8 0 0 0-19.2 0l-248 144a17.6 17.6 0 0 0-9.6 16v286.4a17.6 17.6 0 0 0 9.6 16l248 144a20.8 20.8 0 0 0 19.2 0l155.2-89.6z" fill="#3D4265" p-id="26899"></path></svg>